<svg width="100px" height="100px" viewBox="0 0 100 100" version="1.1" xmlns="http://www.w3.org/2000/svg">
  <g id="Page-1" stroke="none" stroke-width="1" fill="none" fill-rule="evenodd">
    <g id="drag-icon" fill="#FFF">
      <g id="Group">
        <path d="M29.577045,36.1180588 C28.7382975,35.4353137 27.5054207,35.563549 26.8245988,36.4047255 L24.9901566,38.6690392 L24.9901566,25.0390392 L38.5932877,25.0390392 L36.3332094,26.8772745 C35.4940705,27.5598235 35.3660861,28.7945294 36.0472994,29.6353137 C36.4339922,30.1127647 36.9985714,30.3604118 37.5678474,30.3604118 C38.0013112,30.3604118 38.437319,30.2168824 38.800137,29.9217843 L45.3427984,24.6006078 C45.344364,24.5992353 45.3457339,24.5974706 45.3474951,24.5962941 C45.4003327,24.5529608 45.4508219,24.5066863 45.4989628,24.4580588 C45.5122701,24.4447255 45.5240117,24.4302157 45.5369276,24.4162941 C45.5709785,24.3802157 45.6038552,24.3431569 45.6349706,24.3045294 C45.6502348,24.2855098 45.6639335,24.265902 45.6784149,24.2462941 C45.7050294,24.2104118 45.7310568,24.1739412 45.7553229,24.136098 C45.7684344,24.1157059 45.7807632,24.0949216 45.7928963,24.0739412 C45.8159883,24.0347255 45.8381018,23.9947255 45.8582583,23.9539412 C45.8686301,23.9333529 45.8786106,23.9131569 45.8881996,23.8921765 C45.9077691,23.8488431 45.925773,23.8043333 45.942407,23.7592353 C45.9496477,23.7396275 45.9572798,23.7202157 45.9639335,23.7004118 C45.9797847,23.6527647 45.9932877,23.6043333 46.0054207,23.5553137 C46.0103131,23.5362941 46.0157926,23.5178627 46.0199022,23.4988431 C46.0312524,23.4470784 46.0394716,23.3943333 46.0465166,23.3411961 C46.048865,23.3241373 46.0523875,23.3076667 46.0543444,23.2904118 C46.0617808,23.2208039 46.0662818,23.1500196 46.0662818,23.0782549 C46.0662818,23.0064902 46.0617808,22.935902 46.0543444,22.866098 C46.0523875,22.8488431 46.048865,22.8323725 46.0465166,22.8153137 C46.0394716,22.7621765 46.0312524,22.7094314 46.0199022,22.6578627 C46.0157926,22.6386471 46.0103131,22.6202157 46.0054207,22.6013922 C45.9932877,22.5521765 45.9797847,22.503549 45.9639335,22.455902 C45.9572798,22.4364902 45.9498434,22.4170784 45.9426027,22.3974706 C45.925773,22.3521765 45.9077691,22.3076667 45.8880039,22.2641373 C45.8786106,22.2433529 45.8686301,22.2233529 45.8586497,22.2031569 C45.8381018,22.1617843 45.8157926,22.1215882 45.7925049,22.0819804 C45.7805675,22.0615882 45.7684344,22.041 45.7555186,22.0208039 C45.7310568,21.9823725 45.704638,21.9455098 45.6774364,21.9090392 C45.6633464,21.8900196 45.6500391,21.871 45.6355577,21.8525686 C45.6030724,21.8121765 45.5686301,21.7739412 45.5334051,21.736098 C45.5218591,21.7241373 45.5114873,21.711 45.4995499,21.6990392 C45.4510176,21.6498235 45.3997456,21.6033529 45.3463209,21.5594314 C45.3449511,21.5582549 45.3437769,21.5570784 45.3426027,21.555902 L38.800137,16.2349216 C37.9608023,15.5519804 36.7281213,15.6804118 36.0472994,16.5215882 C35.3660861,17.3621765 35.4942661,18.5970784 36.3334051,19.2794314 L38.5932877,21.1174706 L24.9901566,21.1174706 L24.9901566,7.48766667 L26.8244031,9.75198039 C27.2110959,10.2296275 27.7756751,10.4772745 28.3449511,10.4770784 C28.7782192,10.4770784 29.2144227,10.3337451 29.577045,10.0388431 C30.416184,9.35629412 30.544364,8.12158824 29.8633464,7.28080392 L24.5525832,0.725117647 C24.5512133,0.723352941 24.5496477,0.721784314 24.5480822,0.720215686 C24.5048337,0.667078431 24.4588454,0.616490196 24.4103131,0.568254902 C24.3972016,0.555313725 24.3827202,0.54354902 24.3694129,0.531 C24.332818,0.496882353 24.2960274,0.463352941 24.2568885,0.432176471 C24.2382975,0.417078431 24.2183366,0.403156863 24.1991585,0.388647059 C24.1631507,0.361980392 24.1265558,0.335901961 24.0887867,0.311588235 C24.0686301,0.29845098 24.0478865,0.286098039 24.0271429,0.273745098 C23.9878082,0.250607843 23.9476908,0.228647059 23.9067906,0.208058824 C23.8866341,0.198058824 23.8662818,0.188058824 23.8457339,0.178647059 C23.8020939,0.158647059 23.7578669,0.140803922 23.7126614,0.123941176 C23.6932877,0.116882353 23.6737182,0.109039216 23.653953,0.102372549 C23.6065949,0.0864901961 23.5580626,0.0731568627 23.5089432,0.0608039216 C23.4901566,0.0560980392 23.4719569,0.0506078431 23.4527789,0.0462941176 C23.4011155,0.0351176471 23.3486693,0.0268823529 23.2954403,0.019627451 C23.2784149,0.0174705882 23.2619765,0.013745098 23.2449511,0.0117843137 C23.1752838,0.00433333333 23.1048337,1.96078431e-05 23.0332094,1.96078431e-05 C22.9613894,1.96078431e-05 22.8909393,0.00433333333 22.8214677,0.0117843137 C22.8042466,0.013745098 22.7878082,0.0174705882 22.7707828,0.019627451 C22.7175538,0.0268823529 22.6651076,0.0351176471 22.6134442,0.0462941176 C22.5942661,0.0506078431 22.5760665,0.0560980392 22.5572798,0.0608039216 C22.5081605,0.0731568627 22.4596282,0.0864901961 22.4122701,0.102372549 C22.3925049,0.109039216 22.3729354,0.116882353 22.3535616,0.123941176 C22.3083562,0.140803922 22.2641292,0.158647059 22.2204892,0.178647059 C22.1999413,0.188058824 22.179589,0.198058824 22.1594325,0.208058824 C22.1185323,0.228647059 22.0784149,0.250607843 22.0390802,0.273745098 C22.0183366,0.286098039 21.9977886,0.29845098 21.9774364,0.311588235 C21.9396673,0.335901961 21.9030724,0.361980392 21.8672603,0.388647059 C21.8478865,0.403156863 21.8279256,0.417078431 21.8093346,0.432176471 C21.7701957,0.463352941 21.7334051,0.496882353 21.6968102,0.531 C21.6835029,0.54354902 21.6690215,0.555313725 21.65591,0.568254902 C21.6073777,0.616490196 21.5613894,0.667078431 21.5181409,0.720215686 C21.516771,0.721784314 21.5150098,0.723352941 21.5136399,0.725117647 L16.2028767,7.28080392 C15.5218591,8.12158824 15.6500391,9.35629412 16.4891781,10.0388431 C17.3277299,10.721 18.5606067,10.5931569 19.24182,9.75198039 L21.0762622,7.48766667 L21.0762622,21.1174706 L7.47293542,21.1174706 L9.732818,19.2794314 C10.5719569,18.5970784 10.700137,17.3621765 10.0189237,16.5215882 C9.33751468,15.6806078 8.10542074,15.5519804 7.26608611,16.2349216 L0.723816047,21.555902 C0.722446184,21.5570784 0.721272016,21.5582549 0.719902153,21.5594314 C0.666477495,21.6033529 0.615205479,21.6498235 0.56667319,21.6990392 C0.554931507,21.7108039 0.544559687,21.7239412 0.533013699,21.736098 C0.497592955,21.7739412 0.46334638,21.8121765 0.430861057,21.8525686 C0.416183953,21.871 0.402876712,21.8900196 0.388982387,21.9086471 C0.361585127,21.9455098 0.335166341,21.9823725 0.310704501,22.0208039 C0.29778865,22.041 0.285655577,22.0615882 0.2737182,22.0819804 C0.250430528,22.1215882 0.228121331,22.1617843 0.207573386,22.2031569 C0.197592955,22.2233529 0.187612524,22.2433529 0.178219178,22.2641373 C0.158454012,22.3076667 0.140450098,22.3521765 0.123620352,22.3974706 C0.116379648,22.4170784 0.108943249,22.4364902 0.102289628,22.455902 C0.0864383562,22.5037451 0.0729354207,22.5523725 0.0606066536,22.6017843 C0.0559099804,22.6204118 0.0504305284,22.6386471 0.0463209393,22.6576667 C0.0349706458,22.7092353 0.0267514677,22.7623725 0.0195107632,22.8155098 C0.0171624266,22.8323725 0.0138356164,22.8490392 0.0118786693,22.866098 C0.00444227006,22.935902 -5.87084149e-05,23.0064902 -5.87084149e-05,23.0782549 C-5.87084149e-05,23.1500196 0.00444227006,23.2208039 0.0118786693,23.2904118 C0.0138356164,23.3076667 0.0173581213,23.3241373 0.0197064579,23.3411961 C0.0267514677,23.3943333 0.0349706458,23.4470784 0.0463209393,23.4988431 C0.0504305284,23.5178627 0.0559099804,23.5362941 0.0608023483,23.5553137 C0.0729354207,23.6043333 0.0864383562,23.6527647 0.102289628,23.7004118 C0.108943249,23.7202157 0.116575342,23.7396275 0.123816047,23.7592353 C0.140450098,23.8043333 0.158454012,23.8488431 0.178023483,23.8921765 C0.187612524,23.9131569 0.197592955,23.9333529 0.207964775,23.9539412 C0.228121331,23.9947255 0.250234834,24.0347255 0.27332681,24.0739412 C0.285459883,24.0949216 0.29778865,24.1157059 0.310900196,24.136098 C0.335166341,24.1739412 0.361193738,24.2104118 0.387808219,24.2462941 C0.402289628,24.265902 0.415988258,24.2855098 0.431252446,24.3045294 C0.462367906,24.3431569 0.495440313,24.3802157 0.529295499,24.4162941 C0.54221135,24.4302157 0.553953033,24.4447255 0.567260274,24.4580588 C0.615401174,24.5066863 0.665890411,24.5529608 0.718727984,24.5962941 C0.720489237,24.5974706 0.7218591,24.5992353 0.723620352,24.6006078 L7.26608611,29.9217843 C7.62890411,30.2168824 8.06491194,30.3604118 8.49837573,30.3604118 C9.06765166,30.3604118 9.63223092,30.1127647 10.0189237,29.6353137 C10.700137,28.7945294 10.5721526,27.5598235 9.7330137,26.8772745 L7.47293542,25.0390392 L21.0762622,25.0390392 L21.0762622,38.6690392 L19.24182,36.4047255 C18.5606067,35.563549 17.3281213,35.4353137 16.4891781,36.1180588 C15.6500391,36.8004118 15.5218591,38.0353137 16.2030724,38.876098 L21.5138356,45.4313922 C21.5150098,45.4327647 21.516184,45.4339412 21.5171624,45.4353137 C21.560998,45.4888431 21.6073777,45.5402157 21.6564971,45.5888431 C21.6684344,45.6004118 21.6813503,45.611 21.6936791,45.6225686 C21.7312524,45.6578627 21.7696086,45.6923725 21.8099217,45.7249216 C21.8281213,45.7394314 21.8471037,45.7529608 21.8658904,45.7668824 C21.9024853,45.7943333 21.9394716,45.8206078 21.9778278,45.8451176 C21.9979843,45.8582549 22.0183366,45.8702157 22.0386888,45.8823725 C22.0784149,45.9057059 22.1185323,45.9278627 22.1598239,45.9486471 C22.1797847,45.9586471 22.1999413,45.968451 22.2204892,45.9778627 C22.2641292,45.9978627 22.3083562,46.015902 22.3537573,46.0325686 C22.3731311,46.0400196 22.3925049,46.0474706 22.4120744,46.0541373 C22.4598239,46.0700196 22.5083562,46.0833529 22.5576712,46.095902 C22.5762622,46.1004118 22.5942661,46.105902 22.6132485,46.1102157 C22.6649119,46.1215882 22.7177495,46.1298235 22.7709785,46.1370784 C22.7878082,46.1392353 22.8044423,46.1427647 22.8214677,46.1447255 C22.8909393,46.1521765 22.9613894,46.1564902 23.0332094,46.1564902 C23.1048337,46.1564902 23.1752838,46.1521765 23.2449511,46.1447255 C23.2617808,46.1427647 23.2784149,46.1392353 23.2952446,46.1370784 C23.3484736,46.1298235 23.4013112,46.1215882 23.4529746,46.1102157 C23.4719569,46.105902 23.4901566,46.1004118 23.5085519,46.095902 C23.5578669,46.0833529 23.6063992,46.0700196 23.6541487,46.0541373 C23.6737182,46.0474706 23.693092,46.0400196 23.7124658,46.0325686 C23.7578669,46.015902 23.8020939,45.9978627 23.8457339,45.9778627 C23.8662818,45.968451 23.8864384,45.9586471 23.9063992,45.9486471 C23.9476908,45.9278627 23.9878082,45.9057059 24.0275342,45.8823725 C24.0478865,45.8702157 24.0684344,45.8582549 24.0883953,45.8451176 C24.1267515,45.8206078 24.1637378,45.7943333 24.2003327,45.7668824 C24.2191194,45.7529608 24.2381018,45.7394314 24.2564971,45.7249216 C24.2968102,45.6923725 24.3349706,45.6578627 24.372544,45.6225686 C24.3848728,45.611 24.3977886,45.6004118 24.409726,45.5888431 C24.4588454,45.5402157 24.505225,45.4888431 24.5490607,45.4353137 C24.5502348,45.4339412 24.5512133,45.4327647 24.5523875,45.4313922 L29.8631507,38.876098 C30.544364,38.0353137 30.416184,36.8004118 29.577045,36.1180588 L29.577045,36.1180588 Z M94.2527984,76.7610588 C93.7974168,81.4555686 91.9465362,85.8732157 89.0410568,89.2002745 C85.0557339,93.7643922 79.552407,96.0785098 72.6839139,96.0785098 C60.1232485,96.0785098 52.6555382,85.2394902 52.5835225,85.1332157 C52.5594521,85.0971373 52.5340117,85.0618431 52.507593,85.0273333 C47.2351859,78.1883137 38.0085714,61.1498824 35.3062231,56.0906667 C35.2514286,55.9881176 35.3040705,55.868902 35.3255969,55.8567451 C36.2958513,55.3016471 37.3465362,55.0343922 38.3878278,55.0343922 C40.3355773,55.0343922 42.2492759,55.9696863 43.5340117,57.7059608 L52.8758904,70.3304706 C53.3788258,71.0098824 54.2596477,71.2900784 55.0616047,71.0243922 C55.8633659,70.7592941 56.4050489,70.0085098 56.4050489,69.1626275 L56.4050489,16.8687059 C56.4050489,15.7702745 56.8349902,14.7222353 57.584501,13.9926275 C58.2471233,13.3477255 59.0970254,13.006549 59.9850881,13.0326275 C61.8531898,13.0873333 63.3733464,14.8620392 63.3733464,16.9892941 L63.3733464,44.4496863 C63.3733464,45.519098 64.228728,46.3912549 65.2958513,46.4100784 C66.3557339,46.4255686 67.2484932,45.5875294 67.2860665,44.5185098 C67.3586693,42.4516471 68.8874364,40.8328235 70.7661057,40.8328235 C72.6874364,40.8328235 74.2504501,42.5541961 74.2504501,44.6702745 L74.2504501,51.689098 C74.2504501,52.7718431 75.126771,53.6498824 76.2073973,53.6498824 C77.2882192,53.6498824 78.1643444,52.7718431 78.1643444,51.689098 C78.1643444,49.5730196 79.7273581,47.8516471 81.6486888,47.8516471 C83.5698239,47.8516471 85.1326419,49.5730196 85.1326419,51.689098 L85.1326419,57.3361569 C85.1326419,57.5804706 85.1784344,57.8228235 85.2672798,58.0502745 L85.3672798,58.3063529 C85.6858708,59.1230196 86.510137,59.6271373 87.3784344,59.5436078 C88.2496673,59.459098 88.958865,58.8051765 89.1150294,57.9422353 C89.4385127,56.1559608 90.8751076,54.8596863 92.5308806,54.8596863 C94.4259883,54.8596863 95.9723679,56.5345882 96.0140509,58.6110588 L94.2527984,76.7610588 Z M92.5308806,50.9381176 C91.2805871,50.9381176 90.0913503,51.2671373 89.0465362,51.8532157 L89.0465362,51.689098 C89.0465362,47.4106667 85.7277495,43.9300784 81.6484932,43.9300784 C80.389589,43.9300784 79.2032877,44.261451 78.1643444,44.8455686 L78.1643444,44.6702745 C78.1643444,40.3920392 74.8455577,36.9112549 70.7661057,36.9112549 C69.5077886,36.9112549 68.3236399,37.2363529 67.2872407,37.8126275 L67.2872407,16.9892941 C67.2872407,12.7618431 64.0627789,9.2285098 60.0989824,9.11262745 C58.1484932,9.0594902 56.2854795,9.78988235 54.8574951,11.1794902 C53.3535812,12.6430196 52.4911546,14.7167451 52.4911546,16.8687059 L52.4911546,63.2259608 L46.6782387,55.3702745 C43.5079843,51.0861569 37.9173777,49.8583137 33.3850881,52.4510588 C31.5005479,53.5292941 30.8142466,55.9920392 31.8555382,57.9412549 C35.3572994,64.4971373 44.0618004,80.4661569 49.3737378,87.3775294 C50.0917417,88.4245882 58.3582779,100.000078 72.6839139,100.000078 C80.6173777,100.000078 87.2923288,97.1585098 91.9868493,91.7826275 C95.426184,87.8438039 97.6144423,82.6438039 98.1482975,77.1406667 L99.919726,58.8869412 C99.9257926,58.824 99.9289237,58.7604706 99.9289237,58.6971373 C99.9289237,54.418902 96.610137,50.9381176 92.5308806,50.9381176 L92.5308806,50.9381176 Z" id="Shape"/>
      </g>
    </g>
  </g>
</svg>
