<?xml version="1.0" encoding="utf-8"?>
<!-- Generator: Adobe Illustrator 19.1.0, SVG Export Plug-In . SVG Version: 6.00 Build 0)  -->
<svg version="1.1" id="Layer_1" xmlns="http://www.w3.org/2000/svg" xmlns:xlink="http://www.w3.org/1999/xlink" x="0px" y="0px"
	 viewBox="0 0 600 124.9" style="enable-background:new 0 0 600 124.9;" xml:space="preserve">
<style type="text/css">
	.st0{fill:#565656;}
</style>
<g>
	<path class="st0" d="M79.5,79.6H61.3l-3.2,13.8H40.5l19.8-65h20.8l19.8,65H82.7L79.5,79.6z M76.4,66.3l-1.1-4.5
		c-1.6-6.2-3.2-14.1-4.8-20.6h-0.4c-1.4,6.6-3,14.4-4.6,20.6l-1.1,4.5H76.4z"/>
	<path class="st0" d="M105.7,23.8h17.2v52.6c0,3.4,1.6,4.4,2.8,4.4c0.6,0,1,0,1.8-0.2l2,12.6c-1.8,0.8-4.6,1.4-8.4,1.4
		c-11.6,0-15.4-7.6-15.4-18.8V23.8z"/>
	<path class="st0" d="M130.9,43.4h17.2l5.4,21.8c1.2,5,2.4,10.2,3.6,15.6h0.4c1.2-5.4,2.4-10.6,3.6-15.6l5.4-21.8h16.4l-15.8,50
		h-19.8L130.9,43.4z"/>
	<path class="st0" d="M213.5,61c-0.4-3.6-2.6-5.2-7-5.2c-3.6,0-7.4,1.4-12.6,4.2l-6-11.2c7-4.2,14.2-6.6,22-6.6
		c13,0,20.8,7,20.8,23.4v27.8h-14l-1.2-4.8h-0.4c-4,3.6-8.4,6-13.8,6c-9.4,0-15-7.2-15-15.4C186.3,68.8,194.3,63,213.5,61z
		 M207.3,81.4c2.8,0,4.4-1.4,6.2-3.4v-6.8c-8.2,1.2-10.8,3.8-10.8,6.6C202.7,80.1,204.3,81.4,207.3,81.4z"/>
	<path class="st0" d="M242.1,43.4h14l1.2,8.6h0.4c3.7-6.8,9.3-9.8,14.2-9.8c3.1,0,4.8,0.4,6.2,1L275.3,58c-1.8-0.4-3.4-0.8-5.6-0.8
		c-3.6,0-8,2.2-10.4,8.4v27.8h-17.2V43.4z"/>
	<path class="st0" d="M335.3,27.2c8.2,0,15.2,4,19.8,8.6l-9.4,10.6c-3.2-2.8-6-4.4-10.2-4.4c-7.8,0-14.4,7-14.4,18.8
		c0,12.2,5.6,19,14,19c5,0,8.6-2.2,11.4-5.2l9.4,10.4c-5.5,6.4-13,9.6-21,9.6c-17,0-31.4-11-31.4-33.2
		C303.5,39.6,318.5,27.2,335.3,27.2z"/>
	<path class="st0" d="M389.1,61c-0.4-3.6-2.6-5.2-7-5.2c-3.6,0-7.4,1.4-12.6,4.2l-6-11.2c7-4.2,14.2-6.6,22-6.6
		c13,0,20.8,7,20.8,23.4v27.8h-14l-1.2-4.8h-0.4c-4,3.6-8.4,6-13.8,6c-9.4,0-15-7.2-15-15.4C361.9,68.8,369.9,63,389.1,61z
		 M382.9,81.4c2.8,0,4.4-1.4,6.2-3.4v-6.8c-8.2,1.2-10.8,3.8-10.8,6.6C378.3,80.1,379.9,81.4,382.9,81.4z"/>
	<path class="st0" d="M417.7,43.4h14l1.2,8.6h0.4c3.7-6.8,9.3-9.8,14.2-9.8c3.1,0,4.8,0.4,6.2,1L450.9,58c-1.8-0.4-3.4-0.8-5.6-0.8
		c-3.6,0-8,2.2-10.4,8.4v27.8h-17.2V43.4z"/>
	<path class="st0" d="M461.7,56.8h-6.6V44l7.6-0.6l2-13h14.2v13h11.4v13.4h-11.4v17.1c0,5.5,2.8,7.3,6,7.3c1.6,0,3.2-0.4,4.4-0.8
		l2.6,12.4c-2.6,0.8-6.3,1.8-11.8,1.8c-13,0-18.4-8.2-18.4-20.4V56.8z"/>
	<path class="st0" d="M520.7,42.2c12.8,0,24.8,9.6,24.8,26.2s-12,26.2-24.8,26.2s-24.8-9.6-24.8-26.2S507.9,42.2,520.7,42.2z
		 M520.7,80.8c5.2,0,7.2-4.8,7.2-12.4s-2-12.4-7.2-12.4s-7.2,4.8-7.2,12.4S515.5,80.8,520.7,80.8z"/>
</g>
</svg>
